<?xml version="1.0" encoding="utf-8"?>
<!-- Generator: Adobe Illustrator 24.2.1, SVG Export Plug-In . SVG Version: 6.00 Build 0)  -->
<svg version="1.1" id="Layer_1" xmlns="http://www.w3.org/2000/svg" xmlns:xlink="http://www.w3.org/1999/xlink" x="0px" y="0px"
	 viewBox="0 0 525.3 98.6" style="enable-background:new 0 0 525.3 98.6;" xml:space="preserve">
<style type="text/css">
	.st0{fill:#F69222;}
	.st1{fill:#FFFFFF;}
</style>
<g>
	<path class="st0" d="M482.5,70l-5-6.3h-1.6v10.2h1.9V67l5.4,6.9h1.2V63.7h-1.9V70z M463.8,65.2c2.4,0,3.4,1.9,3.3,3.6
		c0,1.7-0.9,3.5-3.3,3.5s-3.3-1.8-3.4-3.5C460.4,67.2,461.4,65.2,463.8,65.2z M463.8,63.5c-3.5,0-5.3,2.7-5.3,5.4s1.7,5.3,5.3,5.3
		c3.6,0,5.2-2.6,5.2-5.3S467.3,63.5,463.8,63.5z M451.5,73.9V63.7h-1.9v10.2H451.5z M437.9,73.9h1.9v-8.5h3.2v-1.8c-3,0-5.5,0-8.4,0
		v1.8h3.2L437.9,73.9L437.9,73.9z M427,70.2h-3.8l1.9-4.4L427,70.2z M428.6,73.9h2.1l-4.6-10.2H424l-4.6,10.2h2.1l0.9-1.9h5.3
		L428.6,73.9z M406.7,65.5h2.1c2.2,0,3.2,1.6,3.2,3.2c0,1.7-0.9,3.4-3.2,3.4h-2.1V65.5z M408.8,63.7c-1.3,0-2.8,0-4,0v10.2
		c1.3,0,2.8,0,4,0c3.6,0,5.2-2.6,5.1-5.2C413.9,66.2,412.3,63.7,408.8,63.7z M395.9,70l-5-6.3h-1.6v10.2h1.9V67l5.4,6.9h1.2V63.7
		h-1.9V70z M380,63.7v5.9c0,1.8-0.9,2.8-2.5,2.8s-2.6-1-2.6-2.8v-5.9H373v5.9c0,3.1,2.1,4.6,4.5,4.6c2.6,0,4.4-1.5,4.4-4.6v-5.9
		C381.9,63.7,380,63.7,380,63.7z M361,65.2c2.4,0,3.4,1.9,3.3,3.6c0,1.7-0.9,3.5-3.3,3.5s-3.3-1.8-3.4-3.5
		C357.6,67.2,358.6,65.2,361,65.2z M361,63.5c-3.5,0-5.3,2.7-5.3,5.4s1.7,5.3,5.3,5.3s5.2-2.6,5.2-5.3S364.5,63.5,361,63.5z
		 M343.8,73.9v-3.8h5.1v-1.8h-5.1v-2.8h5.4v-1.9h-7.3v10.2h1.9V73.9z"/>
	<path class="st1" d="M484.6,53h-12.8v-5.1h12.3v-4h-12.3v-5.3h12.8v-4.2h-17.1c0,7.6,0,15.2,0,22.8h17.1V53z M461.5,38.1
		c-1.7-3.5-5.4-4.5-9-4.5c-4.2,0-8.8,2-8.8,6.6c0,5.1,4.3,6.3,9,6.9c3,0.3,5.3,1.2,5.3,3.4c0,2.5-2.5,3.4-5.2,3.4
		c-2.8,0-5.4-1.1-6.4-3.6l-3.6,1.9c1.7,4.2,5.3,5.6,9.9,5.6c5.1,0,9.6-2.2,9.6-7.3c0-5.4-4.4-6.7-9.2-7.3c-2.7-0.3-5.1-0.9-5.1-2.9
		c0-1.7,1.5-3,4.7-3c2.5,0,4.6,1.2,5.4,2.5L461.5,38.1z M430.7,34.4c-3.6,0-7.2,0-10.7,0v22.8h4.3v-6.7h6.4
		C441.9,50.5,441.9,34.4,430.7,34.4z M424.3,38.5h6.4c5.5,0,5.5,8.1,0,8.1h-6.4V38.5z M413.9,57.2V34.4h-4.3v22.8H413.9z
		 M388.5,34.4v22.8h16v-4h-11.7V34.4H388.5z M381.4,51.4c-1.5,1.5-3.7,2.3-5.7,2.3c-5.6,0-7.8-3.9-7.8-7.7s2.3-7.9,7.8-7.9
		c2,0,4,0.7,5.5,2.1l2.9-2.8c-2.3-2.3-5.3-3.5-8.4-3.5c-8.2,0-12.1,6.1-12.1,12s3.6,11.8,12.1,11.8c3.3,0,6.3-1.1,8.7-3.4
		L381.4,51.4z M358.9,53h-12.8v-5.1h12.3v-4h-12.3v-5.3h12.8v-4.2h-17.1c0,7.6,0,15.2,0,22.8h17.1V53z"/>
	<g>
		<path class="st0" d="M334.7,32c5.2-8.1,15.7-11,24.4-7.1c-0.2-0.1-0.4-0.3-0.6-0.4c-8.9-5.7-20.8-3.2-26.5,5.7s-3.1,20.8,5.8,26.5
			c0.2,0.1,0.4,0.2,0.6,0.4C331.3,50.9,329.5,40.2,334.7,32z"/>
	</g>
</g>
<polygon class="st0" points="273.8,2 1.3,1.8 1.2,97.3 273.7,97.6 293.1,48.7 "/>
<g>
	<path class="st0" d="M520.8,4.2v91.2h-252V4.2H520.8 M523,1.9H266.5v95.6H523V1.9L523,1.9z"/>
</g>
<g>
	<path class="st1" d="M37.7,54.7h-4.2V64h-5.2V38.6h9.4c3,0,5.3,0.7,6.9,2c1.6,1.3,2.4,3.2,2.4,5.7c0,1.7-0.4,3.2-1.1,4.3
		s-1.9,2.1-3.4,2.8L48,63.8V64h-5.6L37.7,54.7z M33.6,50.5h4.2c1.3,0,2.3-0.3,3.1-1c0.7-0.7,1.1-1.6,1.1-2.8s-0.3-2.1-1-2.8
		s-1.7-1-3.1-1h-4.2L33.6,50.5L33.6,50.5z"/>
	<path class="st1" d="M67.3,53h-10v6.8h11.8V64H52V38.6h17v4.2H57.3v6.1h10.1L67.3,53L67.3,53z"/>
	<path class="st1" d="M86.2,57.4c0-1-0.3-1.7-1-2.3c-0.7-0.5-2-1.1-3.8-1.7c-1.8-0.6-3.3-1.2-4.3-1.7c-2.9-1.6-4.3-3.7-4.3-6.3
		c0-1.4,0.4-2.6,1.2-3.7c0.8-1.1,1.9-1.9,3.3-2.5s3.1-0.9,4.9-0.9s3.4,0.3,4.9,1c1.4,0.7,2.5,1.6,3.3,2.8s1.2,2.6,1.2,4.1h-5.2
		c0-1.2-0.4-2.1-1.1-2.7c-0.7-0.6-1.8-1-3.1-1c-1.3,0-2.3,0.3-3,0.8s-1.1,1.3-1.1,2.1s0.4,1.5,1.2,2.1c0.8,0.6,2.1,1.1,3.7,1.6
		c3,0.9,5.2,2,6.5,3.3c1.4,1.3,2,3,2,5c0,2.2-0.8,3.9-2.5,5.2s-3.9,1.9-6.7,1.9c-2,0-3.7-0.4-5.3-1.1c-1.6-0.7-2.8-1.7-3.7-2.9
		C72.4,59.1,72,57.7,72,56h5.3c0,2.8,1.7,4.2,5,4.2c1.2,0,2.2-0.3,2.9-0.8C85.9,59,86.2,58.3,86.2,57.4z"/>
	<path class="st1" d="M111.2,53h-10.1v6.8h11.8V64h-17V38.6h17v4.2h-11.8v6.1h10.1V53z"/>
	<path class="st1" d="M132.2,58.8H123l-1.7,5.2h-5.6l9.5-25.4h4.9l9.5,25.4H134L132.2,58.8z M124.4,54.6h6.4l-3.2-9.5L124.4,54.6z"
		/>
	<path class="st1" d="M152.2,54.7H148V64h-5.2V38.6h9.4c3,0,5.3,0.7,6.9,2c1.6,1.3,2.4,3.2,2.4,5.7c0,1.7-0.4,3.2-1.1,4.3
		c-0.8,1.2-1.9,2.1-3.4,2.8l5.5,10.4V64h-5.6L152.2,54.7z M148,50.5h4.2c1.3,0,2.3-0.3,3.1-1c0.7-0.7,1.1-1.6,1.1-2.8
		s-0.3-2.1-1-2.8s-1.7-1-3.1-1H148V50.5z"/>
	<path class="st1" d="M186.4,55.6c-0.2,2.7-1.2,4.9-3,6.5s-4.2,2.4-7.2,2.4c-3.3,0-5.8-1.1-7.7-3.3s-2.8-5.2-2.8-9v-1.6
		c0-2.4,0.4-4.6,1.3-6.5c0.9-1.9,2.1-3.3,3.7-4.3c1.6-1,3.5-1.5,5.6-1.5c2.9,0,5.3,0.8,7.1,2.4c1.8,1.6,2.8,3.8,3.1,6.6h-5.2
		c-0.1-1.6-0.6-2.8-1.4-3.6c-0.8-0.7-2-1.1-3.6-1.1c-1.7,0-3.1,0.6-3.9,1.9c-0.9,1.3-1.3,3.2-1.3,5.8v1.9c0,2.7,0.4,4.8,1.2,6
		c0.8,1.3,2.1,1.9,3.9,1.9c1.6,0,2.8-0.4,3.6-1.1c0.8-0.7,1.3-1.9,1.4-3.4L186.4,55.6L186.4,55.6z"/>
	<path class="st1" d="M211.4,64h-5.2V53.1H196V64h-5.2V38.6h5.2v10.3h10.2V38.6h5.2V64z"/>
	<path class="st1" d="M255,51.3c-0.1,3-0.9,5.3-2.2,7.1s-3.2,2.6-5.4,2.6c-1,0-1.9-0.2-2.6-0.6c-0.7-0.4-1.3-1-1.6-1.9
		c-1.2,1.6-2.7,2.4-4.6,2.4c-1.7,0-3-0.7-3.9-2.1c-0.9-1.4-1.3-3.3-1-5.7c0.2-1.9,0.7-3.6,1.5-5.1s1.7-2.6,2.9-3.4
		c1.2-0.8,2.4-1.2,3.8-1.2c1.7,0,3.1,0.4,4.3,1.2l1.1,0.8l-0.9,10.1c-0.1,0.9,0,1.6,0.3,2.1s0.8,0.7,1.5,0.7c1.1,0,2-0.6,2.7-1.9
		c0.7-1.3,1.1-2.9,1.2-4.9c0.2-4.1-0.6-7.2-2.5-9.4c-1.8-2.2-4.5-3.3-8.1-3.3c-2.2,0-4.2,0.6-6,1.7c-1.8,1.1-3.1,2.8-4.2,4.9
		s-1.6,4.5-1.7,7.2c-0.2,4.1,0.6,7.3,2.5,9.6c1.8,2.3,4.6,3.4,8.3,3.4c1,0,2-0.1,3-0.3c1.1-0.2,2-0.5,2.7-0.9l0.7,2.7
		c-0.7,0.5-1.7,0.8-2.9,1.1c-1.2,0.3-2.4,0.4-3.6,0.4c-3.1,0-5.7-0.6-7.9-1.9c-2.2-1.2-3.8-3.1-4.8-5.5s-1.5-5.3-1.4-8.7
		c0.1-3.2,0.9-6.1,2.2-8.6c1.3-2.5,3.1-4.5,5.4-5.9c2.3-1.4,4.9-2.1,7.7-2.1c2.9,0,5.4,0.6,7.5,1.9c2.1,1.3,3.7,3,4.7,5.4
		C254.6,45.6,255.1,48.3,255,51.3z M237.4,53.2c-0.1,1.5,0,2.7,0.4,3.5s1,1.2,1.9,1.2c0.6,0,1.1-0.2,1.6-0.8
		c0.5-0.5,0.9-1.2,1.3-2.2l0.7-8.3c-0.5-0.2-0.9-0.2-1.4-0.2c-1.3,0-2.4,0.6-3.1,1.7C238.1,49.3,237.7,51,237.4,53.2z"/>
</g>
</svg>
