<?xml version="1.0" encoding="utf-8"?>
<!-- Generator: Adobe Illustrator 24.1.2, SVG Export Plug-In . SVG Version: 6.00 Build 0)  -->
<svg version="1.1" id="Layer_1" xmlns="http://www.w3.org/2000/svg" xmlns:xlink="http://www.w3.org/1999/xlink" x="0px" y="0px"
	 viewBox="0 0 72 72" style="enable-background:new 0 0 72 72;" xml:space="preserve">
<style type="text/css">
	.st0{fill:#F89523;}
	.st1{fill:#FFFFFF;}
</style>
<g>
	<circle class="st0" cx="36" cy="36" r="33.9"/>
	<g>
		<path class="st1" d="M24.6,24.4c0-0.1-0.1-0.2-0.1-0.2c0,0.1-0.1,0.2-0.1,0.2c-0.1,0.2-0.1,0.3-0.2,0.5h0.6
			C24.7,24.7,24.7,24.5,24.6,24.4z"/>
		<path class="st1" d="M27.9,29.5c-0.1,0-0.1,0-0.2,0v1.8c0,0,0.1,0,0.2,0c0.3,0,0.5-0.1,0.7-0.2c0.1-0.2,0.2-0.4,0.2-0.7
			c0-0.3-0.1-0.5-0.2-0.7C28.4,29.5,28.2,29.5,27.9,29.5z"/>
		<path class="st1" d="M20.4,35.9h7.4V44h-7.4V35.9z"/>
		<path class="st1" d="M36.3,25.1h5.3l-6.7-6.2v4.8C34.9,24.5,35.5,25.1,36.3,25.1z"/>
		<path class="st1" d="M55.6,51.2l-4.3-4.4c-0.5-0.5-1.4-0.7-2.1-0.5l-2.5-2.5c-0.1-0.1-0.2-0.2-0.4-0.2c0.7-1,1.2-2.2,1.2-3.5
			c0-3.1-2.4-5.7-5.5-5.8l0,0c-0.1,0-0.2,0-0.3,0c-3.2,0-5.8,2.6-5.8,5.9c0,1.5,0.6,2.8,1.4,3.9h0.1v0.1c1.1,1.1,2.5,1.9,4.2,1.9
			c0.1,0,0.2,0,0.2,0l0,0h0c1.2-0.1,2.4-0.5,3.3-1.3c0,0.1,0.1,0.2,0.2,0.3l2.4,2.5c-0.1,0.3-0.2,0.5-0.2,0.8c0,0.5,0.2,1.1,0.6,1.4
			l4.3,4.4c0.4,0.4,0.9,0.6,1.5,0.6h0c0.5,0,1-0.2,1.4-0.6c0.4-0.4,0.6-0.9,0.6-1.5C56.2,52.1,56,51.6,55.6,51.2z"/>
		<path class="st1" d="M41,47c-0.1,0-0.2,0-0.4-0.1c-0.1,0-0.2,0-0.3-0.1c-0.1,0-0.2-0.1-0.3-0.1c-0.1,0-0.2-0.1-0.3-0.1
			c-0.1,0-0.2-0.1-0.3-0.1c-0.1,0-0.2-0.1-0.3-0.1c-0.1,0-0.2-0.1-0.3-0.1c-0.1,0-0.2-0.1-0.3-0.1c-0.1-0.1-0.2-0.1-0.3-0.2
			c-0.1-0.1-0.2-0.1-0.3-0.2c-0.1-0.1-0.2-0.1-0.3-0.2c-0.1-0.1-0.2-0.1-0.2-0.2c-0.1-0.1-0.2-0.1-0.2-0.2c-0.1,0-0.1-0.1-0.2-0.1
			h-5.7v-1h4.8c0,0,0,0,0-0.1c-0.1-0.1-0.1-0.2-0.2-0.3c-0.1-0.1-0.1-0.2-0.2-0.3c-0.1-0.1-0.1-0.2-0.2-0.3c0-0.1-0.1-0.2-0.1-0.3
			c0-0.1-0.1-0.2-0.1-0.3c0-0.1-0.1-0.2-0.1-0.3c0-0.1-0.1-0.3-0.1-0.4c0-0.1,0-0.2-0.1-0.3c0-0.1,0-0.3-0.1-0.4c0-0.1,0-0.1,0-0.2
			c0-0.1,0-0.2,0-0.2h-3.7v-1h3.7c0,0,0-0.1,0-0.1c0-0.1,0-0.1,0-0.2c0-0.2,0-0.3,0.1-0.4c0-0.1,0-0.2,0.1-0.3
			c0-0.1,0.1-0.3,0.1-0.4c0-0.1,0.1-0.2,0.1-0.3c0-0.1,0.1-0.2,0.1-0.4c0-0.1,0.1-0.2,0.1-0.3c0-0.1,0.1-0.2,0.2-0.3
			c0-0.1,0.1-0.2,0.2-0.3c0-0.1,0.1-0.1,0.1-0.2h-4.7v-1h5.5c0,0,0.1-0.1,0.1-0.1c0.1-0.1,0.2-0.1,0.2-0.2c0.1-0.1,0.2-0.2,0.2-0.2
			c0.1-0.1,0.2-0.1,0.2-0.2c0.1-0.1,0.2-0.1,0.3-0.2c0.1-0.1,0.2-0.1,0.3-0.2c0.1-0.1,0.2-0.1,0.3-0.2c0.1-0.1,0.2-0.1,0.3-0.1
			c0.1-0.1,0.2-0.1,0.3-0.1c0.1,0,0.2-0.1,0.3-0.1c0.1,0,0.2-0.1,0.3-0.1c0.1,0,0.2-0.1,0.3-0.1c0.1,0,0.2-0.1,0.3-0.1
			c0.1,0,0.2,0,0.3-0.1c0.1,0,0.2,0,0.4-0.1c0.1,0,0.2,0,0.3,0c0.1,0,0.2,0,0.3,0v-7.5h-5.3c-1.1,0-2-0.9-2-2.1V19H18.6
			c-1.1,0-2,0.9-2,2v29.4c0,1.1,0.9,2,2,2h21c1.1,0,2-0.9,2-2V47c-0.1,0-0.2,0-0.3,0C41.2,47,41.1,47,41,47z M31,29.5
			c0.1-0.2,0.2-0.4,0.3-0.6l0-0.1h0.9L32.1,29c-0.2,0.3-0.3,0.6-0.5,0.9c-0.2,0.3-0.3,0.6-0.5,0.8v1.2h-0.8v-1.2
			c-0.2-0.3-0.4-0.6-0.5-0.9c-0.2-0.3-0.3-0.6-0.5-0.9l-0.1-0.2h0.9l0,0.1c0.1,0.2,0.2,0.4,0.3,0.6c0.1,0.1,0.2,0.3,0.2,0.4
			C30.9,29.8,31,29.6,31,29.5z M29.6,30.3c0,0.3,0,0.5-0.1,0.7c-0.1,0.2-0.2,0.4-0.4,0.5c-0.2,0.1-0.3,0.2-0.6,0.3
			c-0.2,0.1-0.4,0.1-0.7,0.1c-0.1,0-0.3,0-0.4,0c-0.2,0-0.3,0-0.4-0.1l-0.1,0v-3l0.1,0c0.1,0,0.3-0.1,0.4-0.1c0.2,0,0.3,0,0.4,0
			c0.2,0,0.5,0,0.7,0.1c0.2,0.1,0.4,0.2,0.5,0.3c0.2,0.1,0.3,0.3,0.4,0.5C29.5,29.8,29.6,30.1,29.6,30.3z M28.4,23.1h2.1v0.7h-1.3
			v0.4h1.2V25h-1.2v0.6h1.4v0.7h-2.2V23.1z M20.7,24c0.1-0.2,0.2-0.4,0.3-0.5c0.1-0.1,0.3-0.2,0.5-0.3c0.2-0.1,0.4-0.1,0.6-0.1
			c0.1,0,0.2,0,0.3,0c0.1,0,0.2,0,0.3,0.1c0.1,0,0.1,0.1,0.2,0.1c0,0,0.1,0,0.1,0.1l0.1,0.1L22.8,24l-0.1-0.1
			c-0.1,0-0.1-0.1-0.2-0.1c-0.2-0.1-0.5-0.1-0.6,0c-0.1,0-0.2,0.1-0.2,0.2c-0.1,0.1-0.1,0.2-0.2,0.3c0,0.1-0.1,0.3-0.1,0.4
			c0,0.1,0,0.3,0,0.4c0,0.1,0.1,0.2,0.1,0.3c0.1,0.1,0.1,0.1,0.2,0.2c0.1,0,0.2,0.1,0.3,0.1c0.2,0,0.3,0,0.4,0
			c0.1,0,0.2-0.1,0.2-0.1l0,0l0.1-0.1l0.2,0.6c0.1-0.3,0.2-0.5,0.3-0.7c0.1-0.3,0.2-0.5,0.3-0.7c0.1-0.2,0.2-0.5,0.3-0.7
			c0.1-0.2,0.2-0.4,0.3-0.6l0-0.1h0.6l0,0.1c0.1,0.2,0.2,0.4,0.3,0.6c0.1,0.2,0.2,0.4,0.3,0.7c0.1,0.2,0.2,0.5,0.3,0.7
			c0.1,0.2,0.2,0.5,0.3,0.7l0.2-0.6l0.1,0.1c0.1,0,0.2,0.1,0.3,0.1c0.1,0,0.3,0.1,0.4,0.1c0.2,0,0.3,0,0.3-0.1
			c0.1,0,0.1-0.1,0.1-0.2c0,0,0-0.1,0-0.1c0,0,0-0.1-0.1-0.1c0,0-0.1-0.1-0.2-0.1C27.1,25,27,25,26.9,25c-0.1,0-0.2-0.1-0.3-0.1
			c-0.1,0-0.2-0.1-0.3-0.2c-0.1-0.1-0.1-0.2-0.2-0.3C26.1,24.3,26,24.2,26,24c0-0.3,0.1-0.5,0.3-0.7c0.2-0.2,0.5-0.3,0.8-0.3
			c0.2,0,0.4,0,0.5,0.1c0.1,0,0.3,0.1,0.4,0.1l0.1,0.1L27.9,24l-0.1-0.1c-0.1,0-0.2-0.1-0.3-0.1c-0.2,0-0.5-0.1-0.6,0
			c0,0-0.1,0.1-0.1,0.1c0,0,0,0.1,0,0.1c0,0,0,0.1,0.1,0.1c0,0,0.1,0.1,0.1,0.1c0.1,0,0.1,0.1,0.2,0.1c0.1,0.1,0.3,0.1,0.4,0.2
			c0.1,0.1,0.2,0.1,0.3,0.2h0c0.1,0.1,0.1,0.2,0.2,0.3c0,0.1,0.1,0.2,0.1,0.4c0,0.3-0.1,0.5-0.3,0.7c-0.2,0.2-0.5,0.2-0.9,0.2
			c-0.1,0-0.2,0-0.3,0c-0.1,0-0.2,0-0.3-0.1c-0.1,0-0.2,0-0.2-0.1c-0.1,0-0.1,0-0.1-0.1l0,0v0l0.1,0.2h-0.8l0-0.1
			c0-0.1-0.1-0.2-0.1-0.3c0-0.1-0.1-0.2-0.1-0.3h-1c0,0.1-0.1,0.2-0.1,0.3c0,0.1-0.1,0.2-0.1,0.3l0,0.1H23l0.1-0.2l0,0
			c0,0-0.1,0.1-0.2,0.1c-0.1,0-0.1,0-0.2,0.1c-0.1,0-0.2,0-0.3,0.1c-0.1,0-0.2,0-0.3,0c-0.2,0-0.4,0-0.6-0.1
			c-0.2-0.1-0.3-0.2-0.5-0.3c-0.1-0.1-0.2-0.3-0.3-0.5c-0.1-0.2-0.1-0.4-0.1-0.7C20.6,24.4,20.6,24.2,20.7,24z M24.8,30.9
			c0,0.1,0.1,0.1,0.1,0.2c0,0,0.1,0.1,0.1,0.1c0.1,0,0.3,0,0.4,0c0.1,0,0.1-0.1,0.1-0.1c0,0,0.1-0.1,0.1-0.2c0-0.1,0-0.2,0-0.3v-1.9
			h0.8v1.9c0,0.2,0,0.3-0.1,0.5c0,0.2-0.1,0.3-0.2,0.4c-0.1,0.1-0.2,0.2-0.4,0.3c-0.2,0.1-0.3,0.1-0.5,0.1c-0.2,0-0.4,0-0.5-0.1
			c-0.2-0.1-0.3-0.2-0.4-0.3c-0.1-0.1-0.2-0.3-0.2-0.4c0-0.2-0.1-0.3-0.1-0.5v-1.9h0.8v1.9C24.8,30.8,24.8,30.9,24.8,30.9z
			 M21.4,29.5v-0.7h2.5v0.7h-0.9v2.4h-0.8v-2.4H21.4z M19.3,31.7l0.2-0.7l0.1,0.1c0.1,0,0.2,0.1,0.3,0.1c0.1,0,0.3,0.1,0.4,0.1
			c0.2,0,0.3,0,0.3-0.1c0.1,0,0.1-0.1,0.1-0.2c0,0,0-0.1,0-0.1c0,0,0-0.1-0.1-0.1c0,0-0.1-0.1-0.2-0.1c-0.1,0-0.2-0.1-0.2-0.1
			c-0.1,0-0.2-0.1-0.3-0.1c-0.1,0-0.2-0.1-0.3-0.2c-0.1-0.1-0.1-0.2-0.2-0.3c0-0.1-0.1-0.2-0.1-0.4c0-0.3,0.1-0.5,0.3-0.7
			c0.2-0.2,0.5-0.2,0.8-0.2c0.2,0,0.4,0,0.5,0.1c0.1,0,0.3,0.1,0.4,0.1l0.1,0.1l-0.2,0.7L21,29.6c-0.1,0-0.2-0.1-0.3-0.1
			c-0.2,0-0.4-0.1-0.6,0c0,0-0.1,0.1-0.1,0.1c0,0,0,0.1,0,0.1c0,0,0,0.1,0.1,0.1c0,0,0.1,0.1,0.1,0.1c0.1,0,0.1,0.1,0.2,0.1
			c0.1,0,0.3,0.1,0.4,0.2c0.1,0.1,0.2,0.1,0.3,0.2c0.1,0.1,0.2,0.2,0.2,0.3c0,0.1,0.1,0.2,0.1,0.4c0,0.3-0.1,0.5-0.3,0.7
			C21,31.9,20.7,32,20.3,32c-0.1,0-0.2,0-0.3,0c-0.1,0-0.2,0-0.3-0.1c-0.1,0-0.2,0-0.2-0.1C19.4,31.8,19.4,31.8,19.3,31.7L19.3,31.7
			z M19.4,44.5v-9.2c0-0.3,0.2-0.5,0.5-0.5h8.5c0.3,0,0.5,0.2,0.5,0.5v9.2c0,0.3-0.2,0.5-0.5,0.5h-8.5C19.6,45,19.4,44.8,19.4,44.5z
			 M38.3,49.2H19.9v-1h18.4L38.3,49.2L38.3,49.2z"/>
	</g>
</g>
</svg>
