<?xml version="1.0" encoding="utf-8"?>
<!-- Generator: Adobe Illustrator 24.1.2, SVG Export Plug-In . SVG Version: 6.00 Build 0)  -->
<svg version="1.1" id="Layer_1" xmlns="http://www.w3.org/2000/svg" xmlns:xlink="http://www.w3.org/1999/xlink" x="0px" y="0px"
	 viewBox="0 0 72 72" style="enable-background:new 0 0 72 72;" xml:space="preserve">
<style type="text/css">
	.st0{fill:#F89523;}
	.st1{fill:#FFFFFF;}
</style>
<circle class="st0" cx="36" cy="36.3" r="34.5"/>
<g>
	<path class="st1" d="M38.2,30.9c-0.6,0-1.1-0.5-1.1-1.1v-7.6H20.7c-0.6,0-1.1,0.5-1.1,1.1v30.5c0,0.6,0.5,1.1,1.1,1.1h24
		c0.6,0,1.1-0.5,1.1-1.1V30.9H38.2z M32.4,45.9L28,50.2c-0.4,0.4-1.1,0.4-1.5,0L24.3,48c-0.4-0.4-0.4-1.1,0-1.5
		c0.4-0.4,1.1-0.4,1.5,0l1.4,1.4l3.6-3.6c0.4-0.4,1.1-0.4,1.5,0C32.8,44.8,32.8,45.4,32.4,45.9z M32.4,37.1L28,41.5
		c-0.4,0.4-1.1,0.4-1.5,0l-2.2-2.2c-0.4-0.4-0.4-1.1,0-1.5c0.4-0.4,1.1-0.4,1.5,0l1.4,1.4l3.6-3.6c0.4-0.4,1.1-0.4,1.5,0
		C32.8,36,32.8,36.7,32.4,37.1z M32.4,28.4L28,32.8c-0.4,0.4-1.1,0.4-1.5,0l-2.2-2.2c-0.4-0.4-0.4-1.1,0-1.5c0.4-0.4,1.1-0.4,1.5,0
		l1.4,1.4l3.6-3.6c0.4-0.4,1.1-0.4,1.5,0C32.8,27.3,32.8,28,32.4,28.4z M40.4,48.4H36c-0.6,0-1.1-0.5-1.1-1.1c0-0.6,0.5-1.1,1.1-1.1
		h4.4c0.6,0,1.1,0.5,1.1,1.1C41.5,47.9,41,48.4,40.4,48.4z M40.4,39.6H36c-0.6,0-1.1-0.5-1.1-1.1c0-0.6,0.5-1.1,1.1-1.1h4.4
		c0.6,0,1.1,0.5,1.1,1.1C41.5,39.2,41,39.6,40.4,39.6z M39.3,22.8v5.9h5.9L39.3,22.8z"/>
	<path class="st1" d="M52.4,18.8v30.7c0,0.6-0.5,1.1-1.1,1.1H48V29.8c0-0.9-0.3-1.7-1-2.3L40.5,21c-0.6-0.6-1.4-1-2.3-1h-12v-1.2
		c0-0.6,0.5-1.1,1.1-1.1h24C51.9,17.7,52.4,18.2,52.4,18.8z"/>
</g>
</svg>
