<?xml version="1.0" encoding="utf-8"?>
<!-- Generator: Adobe Illustrator 24.1.2, SVG Export Plug-In . SVG Version: 6.00 Build 0)  -->
<svg version="1.1" id="Layer_1" xmlns="http://www.w3.org/2000/svg" xmlns:xlink="http://www.w3.org/1999/xlink" x="0px" y="0px"
	 viewBox="0 0 72 72" style="enable-background:new 0 0 72 72;" xml:space="preserve">
<style type="text/css">
	.st0{fill:#F89523;}
	.st1{fill:#FFFFFF;}
</style>
<circle class="st0" cx="36" cy="36" r="34.6"/>
<g>
	<path class="st1" d="M36.7,48.8c0-0.4-0.3-0.7-0.7-0.7h-0.7v1.4H36C36.4,49.5,36.7,49.2,36.7,48.8z"/>
	<path class="st1" d="M31.3,48.8c0-0.4-0.3-0.7-0.7-0.7h-0.7v1.4h0.7C31,49.5,31.3,49.2,31.3,48.8z"/>
	<path class="st1" d="M47.5,23.8h2.4L44.1,18v2.4C44.1,22.3,45.6,23.8,47.5,23.8z"/>
	<path class="st1" d="M21.1,51.5c0,1.9,1.5,3.4,3.4,3.4h23c1.9,0,3.4-1.5,3.4-3.4v-6.1H21.1V51.5z M40.1,46.8h2.7
		c0.4,0,0.7,0.3,0.7,0.7s-0.3,0.7-0.7,0.7h-0.7v4.7c0,0.4-0.3,0.7-0.7,0.7c-0.4,0-0.7-0.3-0.7-0.7v-4.7h-0.7c-0.4,0-0.7-0.3-0.7-0.7
		S39.7,46.8,40.1,46.8z M34,47.5c0-0.4,0.3-0.7,0.7-0.7H36c1.1,0,2,0.9,2,2c0,1.1-0.9,2-2,2h-0.7v2c0,0.4-0.3,0.7-0.7,0.7
		c-0.4,0-0.7-0.3-0.7-0.7V47.5z M28.6,47.5c0-0.4,0.3-0.7,0.7-0.7h1.4c1.1,0,2,0.9,2,2c0,1.1-0.9,2-2,2h-0.7v2
		c0,0.4-0.3,0.7-0.7,0.7s-0.7-0.3-0.7-0.7V47.5z"/>
	<path class="st1" d="M28.6,29.9h4.7v-4.7C30.9,25.5,28.9,27.5,28.6,29.9z"/>
	<path class="st1" d="M42.8,20.5v-3.4H24.5c-1.9,0-3.4,1.5-3.4,3.4v23.6h29.7V25.2h-3.4C44.9,25.2,42.8,23.1,42.8,20.5z M27.2,30.6
		c0-3.7,3-6.7,6.8-6.8c0.4,0,0.7,0.3,0.7,0.7v6.1c0,0.4-0.3,0.7-0.7,0.7h-6.1C27.5,31.3,27.2,31,27.2,30.6z M36.7,40.1
		c-3.7,0-6.7-3-6.8-6.8c0-0.4,0.3-0.7,0.7-0.7H36v-5.4c0-0.4,0.3-0.7,0.7-0.7c3.7,0,6.8,3,6.8,6.8C43.4,37,40.4,40.1,36.7,40.1z"/>
	<path class="st1" d="M37.4,27.9v5.4c0,0.4-0.3,0.7-0.7,0.7h-5.4c0.4,3,3.1,5.1,6,4.7c3-0.4,5.1-3.1,4.7-6
		C41.7,30.2,39.8,28.2,37.4,27.9z"/>
</g>
</svg>
