<?xml version="1.0" encoding="utf-8"?>
<!-- Generator: Adobe Illustrator 24.1.2, SVG Export Plug-In . SVG Version: 6.00 Build 0)  -->
<svg version="1.1" id="Layer_1" xmlns="http://www.w3.org/2000/svg" xmlns:xlink="http://www.w3.org/1999/xlink" x="0px" y="0px"
	 viewBox="0 0 72 72" style="enable-background:new 0 0 72 72;" xml:space="preserve">
<style type="text/css">
	.st0{fill:#F89523;}
	.st1{fill:#FFFFFF;}
</style>
<g>
	<circle class="st0" cx="36" cy="36" r="34.2"/>
	<g>
		<path class="st1" d="M41.7,18.6H23.5c-2.4,0-4.4,1.9-4.4,4.4v24.5c0,2.4,1.9,4.4,4.4,4.4h11.7l0.3-1.9c0.2-0.9,0.6-1.7,1.2-2.3
			l9.3-9.3V22.9C46,20.5,44.1,18.6,41.7,18.6L41.7,18.6z M25.4,24.9h6.3c0.9,0,1.6,0.7,1.6,1.6c0,0.9-0.7,1.6-1.6,1.6h-6.3
			c-0.9,0-1.6-0.7-1.6-1.6C23.9,25.6,24.6,24.9,25.4,24.9z M33.3,40.7h-7.9c-0.9,0-1.6-0.7-1.6-1.6s0.7-1.6,1.6-1.6h7.9
			c0.9,0,1.6,0.7,1.6,1.6S34.2,40.7,33.3,40.7z M39.7,34.4H25.4c-0.9,0-1.6-0.7-1.6-1.6s0.7-1.6,1.6-1.6h14.2c0.9,0,1.6,0.7,1.6,1.6
			S40.5,34.4,39.7,34.4z"/>
		<path class="st1" d="M38.9,56.6c-0.3,0-0.6-0.1-0.8-0.3c-0.3-0.3-0.4-0.7-0.3-1l0.8-4.8c0-0.2,0.2-0.5,0.3-0.6L50.7,38
			c1.4-1.4,2.9-1.1,3.6-0.3l2,2c1.1,1.1,1.1,2.8,0,3.9L44.5,55.4c-0.2,0.2-0.4,0.3-0.6,0.3l-4.8,0.8C39.1,56.6,39,56.6,38.9,56.6
			L38.9,56.6z M43.7,54.5L43.7,54.5L43.7,54.5z"/>
	</g>
</g>
</svg>
